<svg xmlns="http://www.w3.org/2000/svg" viewBox="0 0 64 64" role="img" aria-label="Frankfurt Theater">
  <path d="M711 930 644 62Q628 -141 572.5 -262.0Q517 -383 425.0 -436.5Q333 -490 207 -490Q55 -490 -14.5 -424.5Q-84 -359 -84 -267Q-84 -194 -43.5 -147.5Q-3 -101 64 -101Q96 -101 121.0 -110.0Q146 -119 166 -136Q191 -154 210.0 -178.0Q229 -202 246 -228Q272 -267 292.5 -287.0Q313 -307 341 -307Q370 -307 387.5 -283.5Q405 -260 405 -226Q405 -200 386.0 -173.5Q367 -147 339.5 -116.5Q312 -86 285.0 -50.0Q258 -14 241.5 29.5Q225 73 229 127L265 666Q268 703 244.5 714.0Q221 725 165 747L125 766Q64 791 64 847Q64 885 88.0 907.5Q112 930 158 930H324L292 858L319 1120Q331 1233 376.5 1319.5Q422 1406 506.5 1455.5Q591 1505 717 1505Q870 1505 948.0 1445.0Q1026 1385 1026 1288Q1026 1203 979.0 1164.5Q932 1126 859 1126Q831 1126 803.0 1141.5Q775 1157 749 1185Q733 1203 719.0 1225.0Q705 1247 692 1272Q672 1313 648.0 1329.5Q624 1346 600 1346Q576 1346 564.0 1325.5Q552 1305 552 1270Q552 1230 578.0 1195.5Q604 1161 637.0 1124.5Q670 1088 693.0 1041.5Q716 995 711 930ZM632 735 646 930H862Q910 930 935.5 907.0Q961 884 961 829Q961 788 927.0 761.5Q893 735 846 735Z" transform="translate(10.102 45.737) scale(0.027068 -0.027068)" fill="#F4EFE2"/>
  <path d="M51 711 32 721Q5 735 -2.5 756.0Q-10 777 -10 807Q-10 846 17.0 871.0Q44 896 86 896H103Q119 896 135.0 909.0Q151 922 179 959L257 1060Q289 1101 320.5 1122.5Q352 1144 386 1144Q423 1144 444.5 1121.0Q466 1098 466 1050V375Q466 314 485.0 285.5Q504 257 547 257Q572 257 591.0 269.0Q610 281 625.5 296.5Q641 312 656.0 324.0Q671 336 687 336Q705 336 714.5 320.5Q724 305 724 267Q724 192 680.5 126.5Q637 61 563.0 20.5Q489 -20 396 -20Q239 -20 163.0 58.0Q87 136 87 307V629Q87 662 81.5 680.0Q76 698 51 711ZM339 707V896H650Q689 896 710.5 878.0Q732 860 732 826Q732 776 690.0 741.5Q648 707 551 707Z" transform="translate(36.358 45.737) scale(0.027068 -0.027068)" fill="#F4EFE2"/>
</svg>
