<svg xmlns="http://www.w3.org/2000/svg" width="1200" height="630" viewBox="0 0 1200 630" role="img" aria-label="Frankfurt Theater">
  <rect width="1200" height="630" fill="#F4EFE2"/>
  <rect x="0" y="0" width="1200" height="14" fill="#B5341F"/>
  <rect x="0" y="616" width="1200" height="14" fill="#B5341F"/>
  <path d="M711 930 644 62Q628 -141 572.5 -262.0Q517 -383 425.0 -436.5Q333 -490 207 -490Q55 -490 -14.5 -424.5Q-84 -359 -84 -267Q-84 -194 -43.5 -147.5Q-3 -101 64 -101Q96 -101 121.0 -110.0Q146 -119 166 -136Q191 -154 210.0 -178.0Q229 -202 246 -228Q272 -267 292.5 -287.0Q313 -307 341 -307Q370 -307 387.5 -283.5Q405 -260 405 -226Q405 -200 386.0 -173.5Q367 -147 339.5 -116.5Q312 -86 285.0 -50.0Q258 -14 241.5 29.5Q225 73 229 127L265 666Q268 703 244.5 714.0Q221 725 165 747L125 766Q64 791 64 847Q64 885 88.0 907.5Q112 930 158 930H324L292 858L319 1120Q331 1233 376.5 1319.5Q422 1406 506.5 1455.5Q591 1505 717 1505Q870 1505 948.0 1445.0Q1026 1385 1026 1288Q1026 1203 979.0 1164.5Q932 1126 859 1126Q831 1126 803.0 1141.5Q775 1157 749 1185Q733 1203 719.0 1225.0Q705 1247 692 1272Q672 1313 648.0 1329.5Q624 1346 600 1346Q576 1346 564.0 1325.5Q552 1305 552 1270Q552 1230 578.0 1195.5Q604 1161 637.0 1124.5Q670 1088 693.0 1041.5Q716 995 711 930ZM632 735 646 930H862Q910 930 935.5 907.0Q961 884 961 829Q961 788 927.0 761.5Q893 735 846 735Z" transform="translate(487.368 336.316) scale(0.150376 -0.150376)" fill="#B5341F"/>
  <path d="M51 711 32 721Q5 735 -2.5 756.0Q-10 777 -10 807Q-10 846 17.0 871.0Q44 896 86 896H103Q119 896 135.0 909.0Q151 922 179 959L257 1060Q289 1101 320.5 1122.5Q352 1144 386 1144Q423 1144 444.5 1121.0Q466 1098 466 1050V375Q466 314 485.0 285.5Q504 257 547 257Q572 257 591.0 269.0Q610 281 625.5 296.5Q641 312 656.0 324.0Q671 336 687 336Q705 336 714.5 320.5Q724 305 724 267Q724 192 680.5 126.5Q637 61 563.0 20.5Q489 -20 396 -20Q239 -20 163.0 58.0Q87 136 87 307V629Q87 662 81.5 680.0Q76 698 51 711ZM339 707V896H650Q689 896 710.5 878.0Q732 860 732 826Q732 776 690.0 741.5Q648 707 551 707Z" transform="translate(615.188 336.316) scale(0.150376 -0.150376)" fill="#B5341F"/>
  <path d="M782 1400Q833 1400 867.0 1409.5Q901 1419 930.0 1428.0Q959 1437 991 1437Q1052 1437 1081.5 1403.0Q1111 1369 1132 1295L1196 1053Q1207 1012 1183.5 982.0Q1160 952 1118 944Q1085 939 1053.5 952.0Q1022 965 1001 1014Q967 1099 935.5 1139.5Q904 1180 865.0 1193.0Q826 1206 769 1206H621V306Q621 269 631.5 250.0Q642 231 669 220L729 197Q761 185 776.0 163.0Q791 141 791 98Q791 51 764.0 25.5Q737 0 684 0H157Q105 0 77.5 25.5Q50 51 50 98Q50 169 112 203L142 220Q170 236 180.0 254.5Q190 273 190 306V1094Q190 1127 180.0 1145.5Q170 1164 142 1180L112 1197Q50 1231 50 1302Q50 1349 77.5 1374.5Q105 1400 157 1400ZM439 749H743Q788 749 806.5 766.5Q825 784 843 836Q856 874 878.5 891.0Q901 908 935 908Q1001 908 1017 832L1076 562Q1087 512 1075.0 481.5Q1063 451 1025 439Q994 429 962.5 440.0Q931 451 911 482Q891 512 873.5 528.0Q856 544 830.5 549.5Q805 555 760 555H439Z" transform="translate(146.100 565.364) scale(0.054545 -0.054545)" fill="#0F0A05"/>
  <path d="M452 486Q452 636 485.5 731.0Q519 826 577.0 871.0Q635 916 710 916Q799 916 848.5 855.5Q898 795 898 673Q898 552 852.5 495.5Q807 439 733 439Q655 439 616.0 475.0Q577 511 577 574V615Q577 640 569.0 651.5Q561 663 545 663Q529 663 516.5 646.5Q504 630 497.5 597.0Q491 564 491 514ZM468 821 491 642V266Q491 222 502.0 200.0Q513 178 539 173L592 164Q627 158 643.0 135.5Q659 113 659 81Q659 45 637.0 22.5Q615 0 573 0H120Q82 0 59.5 21.5Q37 43 37 81Q37 110 48.0 128.5Q59 147 80 164L90 173Q101 183 106.5 200.0Q112 217 112 266V557Q112 596 104.5 612.0Q97 628 80 639L71 645Q47 661 37.0 677.0Q27 693 27 718Q27 747 44.5 768.5Q62 790 104 807L292 884Q333 901 361.5 908.5Q390 916 408 916Q433 916 447.0 897.0Q461 878 468 821Z" transform="translate(210.900 565.364) scale(0.054545 -0.054545)" fill="#0F0A05"/>
  <path d="M556 160V188L521 190V704Q521 738 506.5 758.0Q492 778 464 778Q445 778 430.0 767.5Q415 757 415 738V691Q415 610 366.0 567.5Q317 525 225 525Q139 525 99.0 561.5Q59 598 59 662Q59 727 112.0 785.0Q165 843 271.0 879.5Q377 916 535 916Q728 916 814.0 845.0Q900 774 900 650V259Q900 246 906.5 234.5Q913 223 931 223Q940 223 946.5 226.0Q953 229 959 233Q964 236 970.5 238.5Q977 241 985 241Q1005 241 1016.0 222.5Q1027 204 1027 179Q1027 132 998.0 86.0Q969 40 915.5 10.0Q862 -20 788 -20Q689 -20 622.5 31.0Q556 82 556 160ZM29 207Q29 344 139.5 420.0Q250 496 444 496Q486 496 522.0 491.0Q558 486 580 476L543 363Q527 374 514.0 378.0Q501 382 483 382Q449 382 428.5 355.5Q408 329 408 285Q408 241 429.5 216.0Q451 191 490 191Q513 191 531.0 200.0Q549 209 556 219L578 109Q541 48 462.5 14.0Q384 -20 293 -20Q169 -20 99.0 44.0Q29 108 29 207Z" transform="translate(259.609 565.364) scale(0.054545 -0.054545)" fill="#0F0A05"/>
  <path d="M491 833V266Q491 214 495.0 194.0Q499 174 511 163L523 152Q555 123 555 81Q555 0 481 0H120Q82 0 59.5 21.5Q37 43 37 81Q37 110 48.0 128.5Q59 147 80 164L90 173Q101 182 106.5 199.5Q112 217 112 266V557Q112 596 104.5 612.0Q97 628 80 639L71 645Q47 661 37.0 677.0Q27 693 27 718Q27 747 44.0 768.0Q61 789 104 807L283 880Q334 901 363.0 908.5Q392 916 417 916Q454 916 472.5 893.0Q491 870 491 833ZM459 569 393 650 432 691Q551 816 638.0 866.0Q725 916 809 916Q919 916 969.5 851.5Q1020 787 1032 670L1073 266Q1078 218 1081.5 200.5Q1085 183 1095 173L1105 164Q1125 146 1137.0 128.0Q1149 110 1149 81Q1149 43 1126.5 21.5Q1104 0 1066 0H702Q628 0 628 81Q628 125 661 152L673 163Q685 174 691.5 192.0Q698 210 693 256L663 523Q656 582 638.0 610.5Q620 639 579 639Q557 639 535.0 629.0Q513 619 488 596Z" transform="translate(314.318 565.364) scale(0.054545 -0.054545)" fill="#0F0A05"/>
  <path d="M119 0Q81 0 58.5 21.5Q36 43 36 81Q36 110 47.0 128.5Q58 147 79 164L89 173Q100 182 105.5 199.5Q111 217 111 266V1151Q111 1190 103.5 1206.0Q96 1222 79 1233L70 1239Q46 1255 36.0 1271.0Q26 1287 26 1312Q26 1341 43.0 1362.0Q60 1383 103 1401L282 1474Q333 1495 362.0 1502.5Q391 1510 416 1510Q453 1510 471.5 1487.0Q490 1464 490 1427V266Q490 214 494.0 194.0Q498 174 510 163L522 152Q554 123 554 81Q554 0 480 0ZM375 436 683 690Q694 699 694.0 709.5Q694 720 682 731L668 744Q652 758 645.5 774.0Q639 790 639 812Q639 851 663.0 873.5Q687 896 729 896H1029Q1067 896 1089.5 874.5Q1112 853 1112 815Q1112 779 1089.0 749.0Q1066 719 1001 711Q967 707 941.0 696.0Q915 685 877 654L433 293ZM765 675 1033 236Q1046 215 1057.5 201.5Q1069 188 1085 174Q1119 144 1130.5 123.0Q1142 102 1142 76Q1142 41 1119.5 20.5Q1097 0 1059 0H662Q630 0 609.0 22.0Q588 44 588 81Q588 102 594.0 116.5Q600 131 614 145L626 157Q640 171 636.5 189.5Q633 208 612 244L487 460Z" transform="translate(376.664 565.364) scale(0.054545 -0.054545)" fill="#0F0A05"/>
  <path d="M544 266Q544 222 555.0 199.0Q566 176 592 173L664 165Q704 161 721.5 139.5Q739 118 739 83Q739 0 656 0H124Q86 0 63.5 21.5Q41 43 41 81Q41 115 56.0 135.0Q71 155 102 168L118 175Q139 183 152.0 204.5Q165 226 165 270V649Q165 672 154.5 685.0Q144 698 112 713L93 722Q52 742 34.0 765.5Q16 789 16 821Q16 855 38.0 875.5Q60 896 99 896H266L168 858V892Q168 916 152.0 935.5Q136 955 115.5 980.5Q95 1006 79.0 1045.0Q63 1084 63 1147Q63 1266 160.5 1346.5Q258 1427 441 1427Q558 1427 637.5 1391.0Q717 1355 757.5 1296.0Q798 1237 798 1168Q798 1092 756.0 1051.5Q714 1011 649 1011Q573 1011 529.5 1056.5Q486 1102 486 1179V1218Q486 1253 468.0 1271.5Q450 1290 418 1290Q384 1290 367.5 1269.5Q351 1249 351 1214Q351 1182 367.5 1151.0Q384 1120 408.0 1089.5Q432 1059 456.0 1027.5Q480 996 496.5 962.5Q513 929 513 893V827L455 896H673Q712 896 733.5 878.0Q755 860 755 826Q755 775 713.0 741.0Q671 707 574 707H544Z" transform="translate(438.300 565.364) scale(0.054545 -0.054545)" fill="#0F0A05"/>
  <path d="M653 165V198L642 200V557Q642 596 634.5 612.0Q627 628 610 639L601 645Q577 661 567.0 677.0Q557 693 557 718Q557 747 574.0 768.0Q591 789 634 807L813 880Q864 901 893.0 908.5Q922 916 947 916Q984 916 1002.5 893.0Q1021 870 1021 833V266Q1021 217 1026.5 199.5Q1032 182 1043 173L1053 164Q1074 147 1085.0 128.5Q1096 110 1096 81Q1096 43 1073.5 21.5Q1051 0 1013 0H822Q741 0 697.0 47.5Q653 95 653 165ZM92 270V557Q92 596 84.5 612.0Q77 628 60 639L51 645Q27 661 17.0 677.0Q7 693 7 718Q7 747 24.0 768.0Q41 789 84 807L263 880Q314 901 343.0 908.5Q372 916 397 916Q434 916 452.5 893.0Q471 870 471 833V366Q471 310 492.0 280.5Q513 251 550 251Q576 251 599.5 262.0Q623 273 645 294L673 321L740 233L702 192Q587 68 498.0 21.0Q409 -26 328 -26Q218 -26 155.0 52.5Q92 131 92 270Z" transform="translate(479.209 565.364) scale(0.054545 -0.054545)" fill="#0F0A05"/>
  <path d="M452 486Q452 636 485.5 731.0Q519 826 577.0 871.0Q635 916 710 916Q799 916 848.5 855.5Q898 795 898 673Q898 552 852.5 495.5Q807 439 733 439Q655 439 616.0 475.0Q577 511 577 574V615Q577 640 569.0 651.5Q561 663 545 663Q529 663 516.5 646.5Q504 630 497.5 597.0Q491 564 491 514ZM468 821 491 642V266Q491 222 502.0 200.0Q513 178 539 173L592 164Q627 158 643.0 135.5Q659 113 659 81Q659 45 637.0 22.5Q615 0 573 0H120Q82 0 59.5 21.5Q37 43 37 81Q37 110 48.0 128.5Q59 147 80 164L90 173Q101 183 106.5 200.0Q112 217 112 266V557Q112 596 104.5 612.0Q97 628 80 639L71 645Q47 661 37.0 677.0Q27 693 27 718Q27 747 44.5 768.5Q62 790 104 807L292 884Q333 901 361.5 908.5Q390 916 408 916Q433 916 447.0 897.0Q461 878 468 821Z" transform="translate(538.991 565.364) scale(0.054545 -0.054545)" fill="#0F0A05"/>
  <path d="M51 711 32 721Q5 735 -2.5 756.0Q-10 777 -10 807Q-10 846 17.0 871.0Q44 896 86 896H103Q119 896 135.0 909.0Q151 922 179 959L257 1060Q289 1101 320.5 1122.5Q352 1144 386 1144Q423 1144 444.5 1121.0Q466 1098 466 1050V375Q466 314 485.0 285.5Q504 257 547 257Q572 257 591.0 269.0Q610 281 625.5 296.5Q641 312 656.0 324.0Q671 336 687 336Q705 336 714.5 320.5Q724 305 724 267Q724 192 680.5 126.5Q637 61 563.0 20.5Q489 -20 396 -20Q239 -20 163.0 58.0Q87 136 87 307V629Q87 662 81.5 680.0Q76 698 51 711ZM339 707V896H650Q689 896 710.5 878.0Q732 860 732 826Q732 776 690.0 741.5Q648 707 551 707Z" transform="translate(587.700 565.364) scale(0.054545 -0.054545)" fill="#0F0A05"/>
  <path d="M434 1400H936Q986 1400 1020.5 1409.5Q1055 1419 1083.5 1428.0Q1112 1437 1144 1437Q1206 1437 1236.5 1403.5Q1267 1370 1285 1295L1341 1051Q1354 998 1334.0 961.5Q1314 925 1271 916Q1231 908 1201.0 923.0Q1171 938 1150 986Q1115 1070 1087.0 1115.5Q1059 1161 1028.0 1178.5Q997 1196 952 1196H900V306Q900 273 910.0 254.5Q920 236 948 220L978 203Q1040 169 1040 98Q1040 0 933 0H436Q384 0 356.5 25.5Q329 51 329 98Q329 169 391 203L421 220Q449 236 459.0 254.5Q469 273 469 306V1196H417Q373 1196 342.0 1178.5Q311 1161 283.0 1115.5Q255 1070 220 986Q199 938 169.5 923.0Q140 908 99 916Q56 925 35.5 961.5Q15 998 28 1051L84 1295Q102 1370 133.0 1403.5Q164 1437 225 1437Q257 1437 286.0 1428.0Q315 1419 349.5 1409.5Q384 1400 434 1400Z" transform="translate(640.718 565.364) scale(0.054545 -0.054545)" fill="#0F0A05"/>
  <path d="M490 1427V266Q490 214 494.0 194.0Q498 174 510 163L522 152Q554 123 554 81Q554 0 480 0H119Q81 0 58.5 21.5Q36 43 36 81Q36 110 47.0 128.5Q58 147 79 164L89 173Q100 182 105.5 199.5Q111 217 111 266V1151Q111 1190 103.5 1206.0Q96 1222 79 1233L70 1239Q46 1255 36.0 1271.0Q26 1287 26 1312Q26 1341 43.0 1362.0Q60 1383 103 1401L282 1474Q333 1495 362.0 1502.5Q391 1510 416 1510Q453 1510 471.5 1487.0Q490 1464 490 1427ZM458 569 392 650 431 691Q550 816 637.0 866.0Q724 916 808 916Q918 916 968.5 851.5Q1019 787 1031 670L1072 266Q1077 218 1080.5 200.5Q1084 183 1094 173L1104 164Q1124 146 1136.0 128.0Q1148 110 1148 81Q1148 43 1125.5 21.5Q1103 0 1065 0H701Q627 0 627 81Q627 125 660 152L672 163Q684 174 690.5 192.0Q697 210 692 256L662 523Q655 582 637.0 610.5Q619 639 578 639Q556 639 534.0 629.0Q512 619 487 596Z" transform="translate(714.845 565.364) scale(0.054545 -0.054545)" fill="#0F0A05"/>
  <path d="M931 576Q931 493 887.5 447.5Q844 402 766 402H282V534H490Q548 534 548 595Q548 668 523.5 699.0Q499 730 467 730Q441 730 419.5 713.0Q398 696 385.0 658.0Q372 620 372 556Q372 402 438.5 327.5Q505 253 617 253Q667 253 720.0 270.0Q773 287 816 322Q840 342 856.0 349.5Q872 357 885 357Q902 357 914.0 343.0Q926 329 926 297Q926 215 875.0 142.5Q824 70 729.5 25.0Q635 -20 506 -20Q362 -20 255.0 37.0Q148 94 89.0 197.5Q30 301 30 439Q30 575 85.5 683.0Q141 791 250.5 853.5Q360 916 520 916Q649 916 741.0 869.5Q833 823 882.0 745.5Q931 668 931 576Z" transform="translate(777.136 565.364) scale(0.054545 -0.054545)" fill="#0F0A05"/>
  <path d="M556 160V188L521 190V704Q521 738 506.5 758.0Q492 778 464 778Q445 778 430.0 767.5Q415 757 415 738V691Q415 610 366.0 567.5Q317 525 225 525Q139 525 99.0 561.5Q59 598 59 662Q59 727 112.0 785.0Q165 843 271.0 879.5Q377 916 535 916Q728 916 814.0 845.0Q900 774 900 650V259Q900 246 906.5 234.5Q913 223 931 223Q940 223 946.5 226.0Q953 229 959 233Q964 236 970.5 238.5Q977 241 985 241Q1005 241 1016.0 222.5Q1027 204 1027 179Q1027 132 998.0 86.0Q969 40 915.5 10.0Q862 -20 788 -20Q689 -20 622.5 31.0Q556 82 556 160ZM29 207Q29 344 139.5 420.0Q250 496 444 496Q486 496 522.0 491.0Q558 486 580 476L543 363Q527 374 514.0 378.0Q501 382 483 382Q449 382 428.5 355.5Q408 329 408 285Q408 241 429.5 216.0Q451 191 490 191Q513 191 531.0 200.0Q549 209 556 219L578 109Q541 48 462.5 14.0Q384 -20 293 -20Q169 -20 99.0 44.0Q29 108 29 207Z" transform="translate(828.736 565.364) scale(0.054545 -0.054545)" fill="#0F0A05"/>
  <path d="M51 711 32 721Q5 735 -2.5 756.0Q-10 777 -10 807Q-10 846 17.0 871.0Q44 896 86 896H103Q119 896 135.0 909.0Q151 922 179 959L257 1060Q289 1101 320.5 1122.5Q352 1144 386 1144Q423 1144 444.5 1121.0Q466 1098 466 1050V375Q466 314 485.0 285.5Q504 257 547 257Q572 257 591.0 269.0Q610 281 625.5 296.5Q641 312 656.0 324.0Q671 336 687 336Q705 336 714.5 320.5Q724 305 724 267Q724 192 680.5 126.5Q637 61 563.0 20.5Q489 -20 396 -20Q239 -20 163.0 58.0Q87 136 87 307V629Q87 662 81.5 680.0Q76 698 51 711ZM339 707V896H650Q689 896 710.5 878.0Q732 860 732 826Q732 776 690.0 741.5Q648 707 551 707Z" transform="translate(883.445 565.364) scale(0.054545 -0.054545)" fill="#0F0A05"/>
  <path d="M931 576Q931 493 887.5 447.5Q844 402 766 402H282V534H490Q548 534 548 595Q548 668 523.5 699.0Q499 730 467 730Q441 730 419.5 713.0Q398 696 385.0 658.0Q372 620 372 556Q372 402 438.5 327.5Q505 253 617 253Q667 253 720.0 270.0Q773 287 816 322Q840 342 856.0 349.5Q872 357 885 357Q902 357 914.0 343.0Q926 329 926 297Q926 215 875.0 142.5Q824 70 729.5 25.0Q635 -20 506 -20Q362 -20 255.0 37.0Q148 94 89.0 197.5Q30 301 30 439Q30 575 85.5 683.0Q141 791 250.5 853.5Q360 916 520 916Q649 916 741.0 869.5Q833 823 882.0 745.5Q931 668 931 576Z" transform="translate(922.827 565.364) scale(0.054545 -0.054545)" fill="#0F0A05"/>
  <path d="M452 486Q452 636 485.5 731.0Q519 826 577.0 871.0Q635 916 710 916Q799 916 848.5 855.5Q898 795 898 673Q898 552 852.5 495.5Q807 439 733 439Q655 439 616.0 475.0Q577 511 577 574V615Q577 640 569.0 651.5Q561 663 545 663Q529 663 516.5 646.5Q504 630 497.5 597.0Q491 564 491 514ZM468 821 491 642V266Q491 222 502.0 200.0Q513 178 539 173L592 164Q627 158 643.0 135.5Q659 113 659 81Q659 45 637.0 22.5Q615 0 573 0H120Q82 0 59.5 21.5Q37 43 37 81Q37 110 48.0 128.5Q59 147 80 164L90 173Q101 183 106.5 200.0Q112 217 112 266V557Q112 596 104.5 612.0Q97 628 80 639L71 645Q47 661 37.0 677.0Q27 693 27 718Q27 747 44.5 768.5Q62 790 104 807L292 884Q333 901 361.5 908.5Q390 916 408 916Q433 916 447.0 897.0Q461 878 468 821Z" transform="translate(974.427 565.364) scale(0.054545 -0.054545)" fill="#0F0A05"/>
  <path d="M289.344262295082 -30Q225 -30 174.57894736842104 1.634078212290504Q124.15789473684211 33.26815642458101 95.07894736842105 85.1340782122905Q66 137 66 200Q66 264 95.0 315.0Q124 366 174.63636363636363 396.5Q225.27272727272728 427 289.27272727272725 427Q355 427 405.5 396.5Q456 366 485.0 315.0Q514 264 514 200Q514 137 485.1311475409836 85.1340782122905Q456.2622950819672 33.26815642458101 405.84426229508193 1.634078212290504Q355.4262295081967 -30 289.344262295082 -30Z" transform="translate(1023.136 565.364) scale(0.054545 -0.054545)" fill="#0F0A05"/>
  <path d="M544 266Q544 222 555.0 199.0Q566 176 592 173L664 165Q704 161 721.5 139.5Q739 118 739 83Q739 0 656 0H124Q86 0 63.5 21.5Q41 43 41 81Q41 115 56.0 135.0Q71 155 102 168L118 175Q139 183 152.0 204.5Q165 226 165 270V649Q165 672 154.5 685.0Q144 698 112 713L93 722Q52 742 34.0 765.5Q16 789 16 821Q16 855 38.0 875.5Q60 896 99 896H266L168 858V892Q168 916 152.0 935.5Q136 955 115.5 980.5Q95 1006 79.0 1045.0Q63 1084 63 1147Q63 1266 160.5 1346.5Q258 1427 441 1427Q558 1427 637.5 1391.0Q717 1355 757.5 1296.0Q798 1237 798 1168Q798 1092 756.0 1051.5Q714 1011 649 1011Q573 1011 529.5 1056.5Q486 1102 486 1179V1218Q486 1253 468.0 1271.5Q450 1290 418 1290Q384 1290 367.5 1269.5Q351 1249 351 1214Q351 1182 367.5 1151.0Q384 1120 408.0 1089.5Q432 1059 456.0 1027.5Q480 996 496.5 962.5Q513 929 513 893V827L455 896H673Q712 896 733.5 878.0Q755 860 755 826Q755 775 713.0 741.0Q671 707 574 707H544Z" transform="translate(426.582 598.455) scale(0.018182 -0.018182)" fill="#B5341F"/>
  <path d="M452 486Q452 636 485.5 731.0Q519 826 577.0 871.0Q635 916 710 916Q799 916 848.5 855.5Q898 795 898 673Q898 552 852.5 495.5Q807 439 733 439Q655 439 616.0 475.0Q577 511 577 574V615Q577 640 569.0 651.5Q561 663 545 663Q529 663 516.5 646.5Q504 630 497.5 597.0Q491 564 491 514ZM468 821 491 642V266Q491 222 502.0 200.0Q513 178 539 173L592 164Q627 158 643.0 135.5Q659 113 659 81Q659 45 637.0 22.5Q615 0 573 0H120Q82 0 59.5 21.5Q37 43 37 81Q37 110 48.0 128.5Q59 147 80 164L90 173Q101 183 106.5 200.0Q112 217 112 266V557Q112 596 104.5 612.0Q97 628 80 639L71 645Q47 661 37.0 677.0Q27 693 27 718Q27 747 44.5 768.5Q62 790 104 807L292 884Q333 901 361.5 908.5Q390 916 408 916Q433 916 447.0 897.0Q461 878 468 821Z" transform="translate(440.764 598.455) scale(0.018182 -0.018182)" fill="#B5341F"/>
  <path d="M556 160V188L521 190V704Q521 738 506.5 758.0Q492 778 464 778Q445 778 430.0 767.5Q415 757 415 738V691Q415 610 366.0 567.5Q317 525 225 525Q139 525 99.0 561.5Q59 598 59 662Q59 727 112.0 785.0Q165 843 271.0 879.5Q377 916 535 916Q728 916 814.0 845.0Q900 774 900 650V259Q900 246 906.5 234.5Q913 223 931 223Q940 223 946.5 226.0Q953 229 959 233Q964 236 970.5 238.5Q977 241 985 241Q1005 241 1016.0 222.5Q1027 204 1027 179Q1027 132 998.0 86.0Q969 40 915.5 10.0Q862 -20 788 -20Q689 -20 622.5 31.0Q556 82 556 160ZM29 207Q29 344 139.5 420.0Q250 496 444 496Q486 496 522.0 491.0Q558 486 580 476L543 363Q527 374 514.0 378.0Q501 382 483 382Q449 382 428.5 355.5Q408 329 408 285Q408 241 429.5 216.0Q451 191 490 191Q513 191 531.0 200.0Q549 209 556 219L578 109Q541 48 462.5 14.0Q384 -20 293 -20Q169 -20 99.0 44.0Q29 108 29 207Z" transform="translate(457.545 598.455) scale(0.018182 -0.018182)" fill="#B5341F"/>
  <path d="M491 833V266Q491 214 495.0 194.0Q499 174 511 163L523 152Q555 123 555 81Q555 0 481 0H120Q82 0 59.5 21.5Q37 43 37 81Q37 110 48.0 128.5Q59 147 80 164L90 173Q101 182 106.5 199.5Q112 217 112 266V557Q112 596 104.5 612.0Q97 628 80 639L71 645Q47 661 37.0 677.0Q27 693 27 718Q27 747 44.0 768.0Q61 789 104 807L283 880Q334 901 363.0 908.5Q392 916 417 916Q454 916 472.5 893.0Q491 870 491 833ZM459 569 393 650 432 691Q551 816 638.0 866.0Q725 916 809 916Q919 916 969.5 851.5Q1020 787 1032 670L1073 266Q1078 218 1081.5 200.5Q1085 183 1095 173L1105 164Q1125 146 1137.0 128.0Q1149 110 1149 81Q1149 43 1126.5 21.5Q1104 0 1066 0H702Q628 0 628 81Q628 125 661 152L673 163Q685 174 691.5 192.0Q698 210 693 256L663 523Q656 582 638.0 610.5Q620 639 579 639Q557 639 535.0 629.0Q513 619 488 596Z" transform="translate(476.327 598.455) scale(0.018182 -0.018182)" fill="#B5341F"/>
  <path d="M119 0Q81 0 58.5 21.5Q36 43 36 81Q36 110 47.0 128.5Q58 147 79 164L89 173Q100 182 105.5 199.5Q111 217 111 266V1151Q111 1190 103.5 1206.0Q96 1222 79 1233L70 1239Q46 1255 36.0 1271.0Q26 1287 26 1312Q26 1341 43.0 1362.0Q60 1383 103 1401L282 1474Q333 1495 362.0 1502.5Q391 1510 416 1510Q453 1510 471.5 1487.0Q490 1464 490 1427V266Q490 214 494.0 194.0Q498 174 510 163L522 152Q554 123 554 81Q554 0 480 0ZM375 436 683 690Q694 699 694.0 709.5Q694 720 682 731L668 744Q652 758 645.5 774.0Q639 790 639 812Q639 851 663.0 873.5Q687 896 729 896H1029Q1067 896 1089.5 874.5Q1112 853 1112 815Q1112 779 1089.0 749.0Q1066 719 1001 711Q967 707 941.0 696.0Q915 685 877 654L433 293ZM765 675 1033 236Q1046 215 1057.5 201.5Q1069 188 1085 174Q1119 144 1130.5 123.0Q1142 102 1142 76Q1142 41 1119.5 20.5Q1097 0 1059 0H662Q630 0 609.0 22.0Q588 44 588 81Q588 102 594.0 116.5Q600 131 614 145L626 157Q640 171 636.5 189.5Q633 208 612 244L487 460Z" transform="translate(497.655 598.455) scale(0.018182 -0.018182)" fill="#B5341F"/>
  <path d="M544 266Q544 222 555.0 199.0Q566 176 592 173L664 165Q704 161 721.5 139.5Q739 118 739 83Q739 0 656 0H124Q86 0 63.5 21.5Q41 43 41 81Q41 115 56.0 135.0Q71 155 102 168L118 175Q139 183 152.0 204.5Q165 226 165 270V649Q165 672 154.5 685.0Q144 698 112 713L93 722Q52 742 34.0 765.5Q16 789 16 821Q16 855 38.0 875.5Q60 896 99 896H266L168 858V892Q168 916 152.0 935.5Q136 955 115.5 980.5Q95 1006 79.0 1045.0Q63 1084 63 1147Q63 1266 160.5 1346.5Q258 1427 441 1427Q558 1427 637.5 1391.0Q717 1355 757.5 1296.0Q798 1237 798 1168Q798 1092 756.0 1051.5Q714 1011 649 1011Q573 1011 529.5 1056.5Q486 1102 486 1179V1218Q486 1253 468.0 1271.5Q450 1290 418 1290Q384 1290 367.5 1269.5Q351 1249 351 1214Q351 1182 367.5 1151.0Q384 1120 408.0 1089.5Q432 1059 456.0 1027.5Q480 996 496.5 962.5Q513 929 513 893V827L455 896H673Q712 896 733.5 878.0Q755 860 755 826Q755 775 713.0 741.0Q671 707 574 707H544Z" transform="translate(518.745 598.455) scale(0.018182 -0.018182)" fill="#B5341F"/>
  <path d="M653 165V198L642 200V557Q642 596 634.5 612.0Q627 628 610 639L601 645Q577 661 567.0 677.0Q557 693 557 718Q557 747 574.0 768.0Q591 789 634 807L813 880Q864 901 893.0 908.5Q922 916 947 916Q984 916 1002.5 893.0Q1021 870 1021 833V266Q1021 217 1026.5 199.5Q1032 182 1043 173L1053 164Q1074 147 1085.0 128.5Q1096 110 1096 81Q1096 43 1073.5 21.5Q1051 0 1013 0H822Q741 0 697.0 47.5Q653 95 653 165ZM92 270V557Q92 596 84.5 612.0Q77 628 60 639L51 645Q27 661 17.0 677.0Q7 693 7 718Q7 747 24.0 768.0Q41 789 84 807L263 880Q314 901 343.0 908.5Q372 916 397 916Q434 916 452.5 893.0Q471 870 471 833V366Q471 310 492.0 280.5Q513 251 550 251Q576 251 599.5 262.0Q623 273 645 294L673 321L740 233L702 192Q587 68 498.0 21.0Q409 -26 328 -26Q218 -26 155.0 52.5Q92 131 92 270Z" transform="translate(532.927 598.455) scale(0.018182 -0.018182)" fill="#B5341F"/>
  <path d="M452 486Q452 636 485.5 731.0Q519 826 577.0 871.0Q635 916 710 916Q799 916 848.5 855.5Q898 795 898 673Q898 552 852.5 495.5Q807 439 733 439Q655 439 616.0 475.0Q577 511 577 574V615Q577 640 569.0 651.5Q561 663 545 663Q529 663 516.5 646.5Q504 630 497.5 597.0Q491 564 491 514ZM468 821 491 642V266Q491 222 502.0 200.0Q513 178 539 173L592 164Q627 158 643.0 135.5Q659 113 659 81Q659 45 637.0 22.5Q615 0 573 0H120Q82 0 59.5 21.5Q37 43 37 81Q37 110 48.0 128.5Q59 147 80 164L90 173Q101 183 106.5 200.0Q112 217 112 266V557Q112 596 104.5 612.0Q97 628 80 639L71 645Q47 661 37.0 677.0Q27 693 27 718Q27 747 44.5 768.5Q62 790 104 807L292 884Q333 901 361.5 908.5Q390 916 408 916Q433 916 447.0 897.0Q461 878 468 821Z" transform="translate(553.400 598.455) scale(0.018182 -0.018182)" fill="#B5341F"/>
  <path d="M51 711 32 721Q5 735 -2.5 756.0Q-10 777 -10 807Q-10 846 17.0 871.0Q44 896 86 896H103Q119 896 135.0 909.0Q151 922 179 959L257 1060Q289 1101 320.5 1122.5Q352 1144 386 1144Q423 1144 444.5 1121.0Q466 1098 466 1050V375Q466 314 485.0 285.5Q504 257 547 257Q572 257 591.0 269.0Q610 281 625.5 296.5Q641 312 656.0 324.0Q671 336 687 336Q705 336 714.5 320.5Q724 305 724 267Q724 192 680.5 126.5Q637 61 563.0 20.5Q489 -20 396 -20Q239 -20 163.0 58.0Q87 136 87 307V629Q87 662 81.5 680.0Q76 698 51 711ZM339 707V896H650Q689 896 710.5 878.0Q732 860 732 826Q732 776 690.0 741.5Q648 707 551 707Z" transform="translate(570.182 598.455) scale(0.018182 -0.018182)" fill="#B5341F"/>
  <path d="M289.344262295082 -30Q225 -30 174.57894736842104 1.634078212290504Q124.15789473684211 33.26815642458101 95.07894736842105 85.1340782122905Q66 137 66 200Q66 264 95.0 315.0Q124 366 174.63636363636363 396.5Q225.27272727272728 427 289.27272727272725 427Q355 427 405.5 396.5Q456 366 485.0 315.0Q514 264 514 200Q514 137 485.1311475409836 85.1340782122905Q456.2622950819672 33.26815642458101 405.84426229508193 1.634078212290504Q355.4262295081967 -30 289.344262295082 -30Z" transform="translate(583.855 598.455) scale(0.018182 -0.018182)" fill="#B5341F"/>
  <path d="M491 833V266Q491 218 496.5 200.5Q502 183 513 173L523 164Q543 148 554.5 129.0Q566 110 566 81Q566 43 543.5 21.5Q521 0 483 0H120Q81 0 59.0 21.5Q37 43 37 81Q37 110 48.0 129.0Q59 148 80 164L90 173Q101 183 106.5 200.5Q112 218 112 266V557Q112 596 104.5 612.0Q97 628 80 639L71 645Q47 661 37.0 677.0Q27 693 27 718Q27 747 44.0 768.0Q61 789 104 807L283 880Q334 901 363.0 908.5Q392 916 417 916Q454 916 472.5 893.0Q491 870 491 833ZM299 977Q199 977 141.5 1031.0Q84 1085 84 1177Q84 1269 141.5 1323.0Q199 1377 299 1377Q399 1377 456.5 1323.0Q514 1269 514 1177Q514 1085 456.5 1031.0Q399 977 299 977Z" transform="translate(594.764 598.455) scale(0.018182 -0.018182)" fill="#B5341F"/>
  <path d="M491 833V266Q491 214 495.0 194.0Q499 174 511 163L523 152Q555 123 555 81Q555 0 481 0H120Q82 0 59.5 21.5Q37 43 37 81Q37 110 48.0 128.5Q59 147 80 164L90 173Q101 182 106.5 199.5Q112 217 112 266V557Q112 596 104.5 612.0Q97 628 80 639L71 645Q47 661 37.0 677.0Q27 693 27 718Q27 747 44.0 768.0Q61 789 104 807L283 880Q334 901 363.0 908.5Q392 916 417 916Q454 916 472.5 893.0Q491 870 491 833ZM459 569 393 650 432 691Q551 816 638.0 866.0Q725 916 809 916Q919 916 969.5 851.5Q1020 787 1032 670L1073 266Q1078 218 1081.5 200.5Q1085 183 1095 173L1105 164Q1125 146 1137.0 128.0Q1149 110 1149 81Q1149 43 1126.5 21.5Q1104 0 1066 0H702Q628 0 628 81Q628 125 661 152L673 163Q685 174 691.5 192.0Q698 210 693 256L663 523Q656 582 638.0 610.5Q620 639 579 639Q557 639 535.0 629.0Q513 619 488 596Z" transform="translate(605.600 598.455) scale(0.018182 -0.018182)" fill="#B5341F"/>
  <path d="M423 126Q468 126 487.5 143.0Q507 160 507 182Q507 196 500.5 208.0Q494 220 474.0 231.5Q454 243 414 253Q257 295 171.0 341.5Q85 388 51.5 450.5Q18 513 18 602Q18 742 113.0 829.0Q208 916 404 916Q461 916 499.5 905.5Q538 895 565.5 884.5Q593 874 615 874Q634 874 648.5 884.5Q663 895 679.0 905.5Q695 916 718 916Q744 916 764.5 898.5Q785 881 798 831L818 751Q835 686 826.5 641.0Q818 596 780 581Q740 565 702.5 579.5Q665 594 635 634Q598 684 564.0 712.5Q530 741 497.5 753.0Q465 765 432 765Q387 765 365.5 745.5Q344 726 344 701Q344 682 355.0 666.5Q366 651 397.0 637.5Q428 624 486 611Q592 588 669.5 547.5Q747 507 789.5 443.0Q832 379 832 285Q832 189 782.5 119.5Q733 50 645.5 12.0Q558 -26 445 -26Q377 -26 340.5 -16.0Q304 -6 285.0 4.5Q266 15 250 15Q233 15 218.5 4.5Q204 -6 188.0 -16.0Q172 -26 151 -26Q124 -26 108.5 -8.5Q93 9 85 53L67 158Q56 225 64.5 262.0Q73 299 115 309Q152 318 187.0 301.0Q222 284 256 237Q305 171 339.5 148.5Q374 126 423 126Z" transform="translate(626.927 598.455) scale(0.018182 -0.018182)" fill="#B5341F"/>
  <path d="M289.344262295082 -30Q225 -30 174.57894736842104 1.634078212290504Q124.15789473684211 33.26815642458101 95.07894736842105 85.1340782122905Q66 137 66 200Q66 264 95.0 315.0Q124 366 174.63636363636363 396.5Q225.27272727272728 427 289.27272727272725 427Q355 427 405.5 396.5Q456 366 485.0 315.0Q514 264 514 200Q514 137 485.1311475409836 85.1340782122905Q456.2622950819672 33.26815642458101 405.84426229508193 1.634078212290504Q355.4262295081967 -30 289.344262295082 -30Z" transform="translate(642.964 598.455) scale(0.018182 -0.018182)" fill="#B5341F"/>
  <path d="M51 711 32 721Q5 735 -2.5 756.0Q-10 777 -10 807Q-10 846 17.0 871.0Q44 896 86 896H103Q119 896 135.0 909.0Q151 922 179 959L257 1060Q289 1101 320.5 1122.5Q352 1144 386 1144Q423 1144 444.5 1121.0Q466 1098 466 1050V375Q466 314 485.0 285.5Q504 257 547 257Q572 257 591.0 269.0Q610 281 625.5 296.5Q641 312 656.0 324.0Q671 336 687 336Q705 336 714.5 320.5Q724 305 724 267Q724 192 680.5 126.5Q637 61 563.0 20.5Q489 -20 396 -20Q239 -20 163.0 58.0Q87 136 87 307V629Q87 662 81.5 680.0Q76 698 51 711ZM339 707V896H650Q689 896 710.5 878.0Q732 860 732 826Q732 776 690.0 741.5Q648 707 551 707Z" transform="translate(653.873 598.455) scale(0.018182 -0.018182)" fill="#B5341F"/>
  <path d="M490 1427V266Q490 214 494.0 194.0Q498 174 510 163L522 152Q554 123 554 81Q554 0 480 0H119Q81 0 58.5 21.5Q36 43 36 81Q36 110 47.0 128.5Q58 147 79 164L89 173Q100 182 105.5 199.5Q111 217 111 266V1151Q111 1190 103.5 1206.0Q96 1222 79 1233L70 1239Q46 1255 36.0 1271.0Q26 1287 26 1312Q26 1341 43.0 1362.0Q60 1383 103 1401L282 1474Q333 1495 362.0 1502.5Q391 1510 416 1510Q453 1510 471.5 1487.0Q490 1464 490 1427ZM458 569 392 650 431 691Q550 816 637.0 866.0Q724 916 808 916Q918 916 968.5 851.5Q1019 787 1031 670L1072 266Q1077 218 1080.5 200.5Q1084 183 1094 173L1104 164Q1124 146 1136.0 128.0Q1148 110 1148 81Q1148 43 1125.5 21.5Q1103 0 1065 0H701Q627 0 627 81Q627 125 660 152L672 163Q684 174 690.5 192.0Q697 210 692 256L662 523Q655 582 637.0 610.5Q619 639 578 639Q556 639 534.0 629.0Q512 619 487 596Z" transform="translate(667.545 598.455) scale(0.018182 -0.018182)" fill="#B5341F"/>
  <path d="M931 576Q931 493 887.5 447.5Q844 402 766 402H282V534H490Q548 534 548 595Q548 668 523.5 699.0Q499 730 467 730Q441 730 419.5 713.0Q398 696 385.0 658.0Q372 620 372 556Q372 402 438.5 327.5Q505 253 617 253Q667 253 720.0 270.0Q773 287 816 322Q840 342 856.0 349.5Q872 357 885 357Q902 357 914.0 343.0Q926 329 926 297Q926 215 875.0 142.5Q824 70 729.5 25.0Q635 -20 506 -20Q362 -20 255.0 37.0Q148 94 89.0 197.5Q30 301 30 439Q30 575 85.5 683.0Q141 791 250.5 853.5Q360 916 520 916Q649 916 741.0 869.5Q833 823 882.0 745.5Q931 668 931 576Z" transform="translate(688.855 598.455) scale(0.018182 -0.018182)" fill="#B5341F"/>
  <path d="M556 160V188L521 190V704Q521 738 506.5 758.0Q492 778 464 778Q445 778 430.0 767.5Q415 757 415 738V691Q415 610 366.0 567.5Q317 525 225 525Q139 525 99.0 561.5Q59 598 59 662Q59 727 112.0 785.0Q165 843 271.0 879.5Q377 916 535 916Q728 916 814.0 845.0Q900 774 900 650V259Q900 246 906.5 234.5Q913 223 931 223Q940 223 946.5 226.0Q953 229 959 233Q964 236 970.5 238.5Q977 241 985 241Q1005 241 1016.0 222.5Q1027 204 1027 179Q1027 132 998.0 86.0Q969 40 915.5 10.0Q862 -20 788 -20Q689 -20 622.5 31.0Q556 82 556 160ZM29 207Q29 344 139.5 420.0Q250 496 444 496Q486 496 522.0 491.0Q558 486 580 476L543 363Q527 374 514.0 378.0Q501 382 483 382Q449 382 428.5 355.5Q408 329 408 285Q408 241 429.5 216.0Q451 191 490 191Q513 191 531.0 200.0Q549 209 556 219L578 109Q541 48 462.5 14.0Q384 -20 293 -20Q169 -20 99.0 44.0Q29 108 29 207Z" transform="translate(706.600 598.455) scale(0.018182 -0.018182)" fill="#B5341F"/>
  <path d="M51 711 32 721Q5 735 -2.5 756.0Q-10 777 -10 807Q-10 846 17.0 871.0Q44 896 86 896H103Q119 896 135.0 909.0Q151 922 179 959L257 1060Q289 1101 320.5 1122.5Q352 1144 386 1144Q423 1144 444.5 1121.0Q466 1098 466 1050V375Q466 314 485.0 285.5Q504 257 547 257Q572 257 591.0 269.0Q610 281 625.5 296.5Q641 312 656.0 324.0Q671 336 687 336Q705 336 714.5 320.5Q724 305 724 267Q724 192 680.5 126.5Q637 61 563.0 20.5Q489 -20 396 -20Q239 -20 163.0 58.0Q87 136 87 307V629Q87 662 81.5 680.0Q76 698 51 711ZM339 707V896H650Q689 896 710.5 878.0Q732 860 732 826Q732 776 690.0 741.5Q648 707 551 707Z" transform="translate(725.382 598.455) scale(0.018182 -0.018182)" fill="#B5341F"/>
  <path d="M931 576Q931 493 887.5 447.5Q844 402 766 402H282V534H490Q548 534 548 595Q548 668 523.5 699.0Q499 730 467 730Q441 730 419.5 713.0Q398 696 385.0 658.0Q372 620 372 556Q372 402 438.5 327.5Q505 253 617 253Q667 253 720.0 270.0Q773 287 816 322Q840 342 856.0 349.5Q872 357 885 357Q902 357 914.0 343.0Q926 329 926 297Q926 215 875.0 142.5Q824 70 729.5 25.0Q635 -20 506 -20Q362 -20 255.0 37.0Q148 94 89.0 197.5Q30 301 30 439Q30 575 85.5 683.0Q141 791 250.5 853.5Q360 916 520 916Q649 916 741.0 869.5Q833 823 882.0 745.5Q931 668 931 576Z" transform="translate(739.055 598.455) scale(0.018182 -0.018182)" fill="#B5341F"/>
  <path d="M452 486Q452 636 485.5 731.0Q519 826 577.0 871.0Q635 916 710 916Q799 916 848.5 855.5Q898 795 898 673Q898 552 852.5 495.5Q807 439 733 439Q655 439 616.0 475.0Q577 511 577 574V615Q577 640 569.0 651.5Q561 663 545 663Q529 663 516.5 646.5Q504 630 497.5 597.0Q491 564 491 514ZM468 821 491 642V266Q491 222 502.0 200.0Q513 178 539 173L592 164Q627 158 643.0 135.5Q659 113 659 81Q659 45 637.0 22.5Q615 0 573 0H120Q82 0 59.5 21.5Q37 43 37 81Q37 110 48.0 128.5Q59 147 80 164L90 173Q101 183 106.5 200.0Q112 217 112 266V557Q112 596 104.5 612.0Q97 628 80 639L71 645Q47 661 37.0 677.0Q27 693 27 718Q27 747 44.5 768.5Q62 790 104 807L292 884Q333 901 361.5 908.5Q390 916 408 916Q433 916 447.0 897.0Q461 878 468 821Z" transform="translate(756.800 598.455) scale(0.018182 -0.018182)" fill="#B5341F"/>
</svg>
